<svg id="logo" xmlns="http://www.w3.org/2000/svg" width="42.402" height="43.2" viewBox="0 0 42.402 43.2">
  <path id="Path_1" data-name="Path 1" d="M51.547,50.209l-20.4-1.19A10.144,10.144,0,0,1,21.6,51.352C32.239,60.518,45.153,56.1,51.547,50.209Z" transform="translate(-19.743 -38.031)" fill="#e0e0e0"/>
  <path id="Path_2" data-name="Path 2" d="M73.238,28.714,48.914,26.8A12.036,12.036,0,0,0,45.2,22.531,22.553,22.553,0,0,1,73.238,28.714Z" transform="translate(-34.386 -20.073)" fill="#e0e0e0"/>
  <path id="Path_3" data-name="Path 3" d="M43.588,72.67c6.688,2.573.514,12.476-13.505,1.415a14.707,14.707,0,0,0-13.376.643c5.594-.862,11.4,2.4,17.363,9,9.168,8.11,18.135,6.688,23.023-.257C64.3,72.156,50.405,64.182,43.588,72.67Z" transform="translate(-16.707 -50.501)" fill="#70c0a1"/>
  <path id="Path_4" data-name="Path 4" d="M48.476,103.272c-13.119,3.6-20.322-16.592-31.769-14.534C20.262,101.106,33.942,110.474,48.476,103.272Z" transform="translate(-16.707 -62.581)" fill="#70c0a1"/>
</svg>
