<?xml version="1.0" standalone="no"?>
<!DOCTYPE svg PUBLIC "-//W3C//DTD SVG 20010904//EN"
 "http://www.w3.org/TR/2001/REC-SVG-20010904/DTD/svg10.dtd">
<svg version="1.0" xmlns="http://www.w3.org/2000/svg"
 width="688.000000pt" height="688.000000pt" viewBox="0 0 688.000000 688.000000"
 preserveAspectRatio="xMidYMid meet">
<metadata>
Created by potrace 1.11, written by Peter Selinger 2001-2013
</metadata>
<g transform="translate(0.000000,688.000000) scale(0.100000,-0.100000)"
fill="#000000" stroke="none">
<path d="M3159 6876 c-2 -2 -38 -7 -79 -10 -42 -4 -87 -8 -100 -10 -14 -2 -46
-7 -71 -10 -42 -6 -66 -10 -124 -20 -11 -2 -31 -7 -45 -10 -14 -3 -36 -8 -50
-10 -47 -8 -195 -45 -280 -71 -47 -15 -92 -28 -100 -30 -8 -2 -42 -13 -75 -26
-33 -13 -64 -24 -70 -25 -39 -8 -351 -149 -359 -162 -3 -6 18 -28 47 -49 160
-121 326 -302 437 -478 25 -39 51 -80 58 -90 6 -11 16 -30 22 -42 5 -14 19
-24 32 -24 13 -1 32 -3 43 -4 11 -2 61 -6 110 -9 50 -4 110 -9 135 -11 70 -6
189 -16 260 -21 122 -9 175 -13 235 -18 102 -9 208 -17 265 -21 30 -2 87 -6
125 -10 85 -6 177 -14 270 -21 39 -2 90 -7 115 -10 25 -3 77 -7 115 -9 39 -2
99 -6 135 -9 36 -3 94 -8 130 -11 36 -3 94 -8 130 -11 36 -2 94 -7 130 -9 64
-5 131 -10 240 -20 30 -3 91 -8 135 -11 145 -10 323 -24 510 -39 99 -8 246
-20 390 -31 44 -3 98 -7 120 -9 31 -3 184 -15 215 -17 41 -3 41 3 -2 54 -62
76 -124 145 -203 228 -69 72 -164 162 -245 230 -36 30 -67 58 -70 61 -13 16
-240 179 -248 179 -6 0 -12 3 -14 8 -14 31 -410 252 -563 314 -22 9 -58 24
-80 34 -22 10 -42 18 -45 19 -3 1 -12 4 -20 8 -58 22 -247 86 -273 91 -7 2
-19 6 -27 9 -20 8 -256 65 -295 72 -16 3 -55 9 -85 14 -89 16 -122 21 -180 27
-30 3 -66 8 -80 11 -28 6 -615 14 -621 9z"/>
<path d="M1859 5107 c-81 -77 -233 -178 -363 -241 -95 -46 -276 -111 -336
-121 -19 -3 -42 -8 -50 -10 -171 -49 -563 -37 -728 22 -19 7 -7 -5 64 -64 307
-257 702 -478 1073 -603 108 -36 182 -57 223 -65 10 -2 22 -6 27 -10 5 -3 22
-7 38 -9 34 -6 83 -15 103 -21 8 -3 32 -7 54 -11 21 -3 48 -8 60 -10 11 -3 39
-7 61 -10 22 -2 54 -6 70 -9 167 -25 672 -25 803 0 16 3 36 5 160 21 26 3 50
8 53 10 4 2 24 6 45 9 22 4 47 8 56 11 10 3 30 8 45 10 138 25 566 158 597
185 6 5 16 9 24 9 15 0 122 46 257 111 250 120 541 301 734 457 25 20 54 44
65 52 11 8 30 25 43 38 13 12 25 22 27 22 5 0 69 60 65 61 -2 0 -35 2 -74 4
-38 2 -113 7 -165 10 -52 3 -129 8 -171 10 -219 12 -261 15 -344 20 -85 5
-141 9 -345 20 -47 2 -121 7 -165 10 -44 3 -123 8 -175 11 -52 3 -131 7 -175
10 -103 6 -237 13 -350 19 -49 2 -90 5 -90 5 0 1 -110 8 -250 16 -66 3 -142 7
-170 9 -27 1 -97 6 -155 10 -58 3 -141 8 -185 11 -44 2 -120 6 -170 9 -266 16
-261 16 -286 -8z"/>
<path d="M5407 3914 c-1 -1 -31 -5 -67 -8 -36 -3 -77 -8 -92 -11 -16 -3 -39
-7 -53 -9 -43 -8 -209 -57 -220 -66 -5 -4 -28 -13 -50 -20 -22 -7 -42 -16 -45
-19 -3 -3 -32 -20 -65 -36 -33 -17 -64 -33 -70 -38 -5 -4 -39 -28 -74 -53 -36
-26 -71 -52 -79 -58 -22 -17 -184 -177 -216 -212 l-28 -32 59 -27 c89 -41 162
-93 228 -160 100 -101 144 -206 140 -335 -3 -89 -6 -102 -39 -172 -73 -155
-253 -281 -461 -323 -146 -30 -413 -28 -558 5 -23 5 -53 11 -67 14 -71 14
-278 78 -345 106 -11 4 -40 17 -64 27 -82 34 -345 166 -410 205 -34 21 -67 38
-72 38 -5 0 -9 5 -9 10 0 6 -5 10 -12 10 -11 0 -307 194 -346 228 -11 9 -30
24 -42 32 -12 8 -52 38 -88 66 -37 27 -94 62 -127 76 -67 28 -152 60 -160 59
-2 0 -24 7 -47 15 -41 14 -174 49 -228 60 -92 18 -214 35 -290 40 -86 6 -415
2 -415 -6 0 -1 -18 -3 -40 -5 -36 -4 -58 -7 -140 -20 -143 -23 -389 -100 -532
-166 -34 -16 -66 -29 -72 -29 -5 0 -11 -3 -13 -7 -2 -5 -27 -19 -56 -33 -29
-13 -56 -28 -59 -34 -3 -5 -2 -6 4 -3 27 17 298 23 438 11 44 -4 95 -8 113 -8
17 -1 32 -4 32 -8 0 -5 12 -8 28 -8 15 0 43 -4 62 -10 19 -5 46 -11 60 -14 57
-10 212 -60 320 -102 119 -47 358 -163 380 -184 3 -3 25 -16 50 -29 82 -44
430 -283 450 -310 3 -4 25 -22 50 -41 39 -30 89 -72 213 -180 99 -86 314 -297
447 -439 106 -113 186 -188 269 -251 18 -14 38 -30 44 -35 7 -6 41 -33 77 -60
36 -27 82 -61 102 -77 20 -15 41 -28 47 -28 5 0 11 -3 13 -8 2 -4 28 -23 58
-42 30 -19 57 -37 60 -40 8 -10 168 -100 275 -155 197 -102 453 -199 620 -235
22 -4 51 -11 65 -14 14 -4 39 -8 55 -11 17 -3 41 -7 55 -10 140 -25 395 -35
525 -20 33 4 71 9 85 10 67 8 127 18 148 26 12 5 26 8 30 7 15 -3 167 44 272
84 124 49 379 186 388 210 2 4 9 8 16 8 6 0 26 12 43 27 17 16 58 50 92 76
115 92 238 220 379 395 17 22 32 45 32 50 0 6 7 12 15 16 8 3 15 10 15 16 0 6
14 31 30 56 17 24 28 44 25 44 -4 0 2 12 13 28 24 33 109 212 118 247 3 14 11
25 17 25 6 0 8 3 4 6 -3 4 0 23 8 43 18 47 62 205 70 256 4 22 9 54 12 70 10
60 11 331 2 380 -5 28 -12 61 -14 75 -30 160 -101 327 -204 475 -66 96 -223
254 -306 310 -33 22 -62 42 -65 45 -34 34 -319 157 -403 174 -105 21 -140 27
-190 32 -57 6 -216 11 -220 8z"/>
<path d="M218 2735 c-2 -2 -32 -6 -68 -9 -73 -8 -90 -17 -70 -41 7 -8 10 -15
7 -15 -5 0 58 -194 84 -255 6 -16 13 -34 14 -40 13 -53 207 -455 254 -525 9
-14 26 -42 36 -62 11 -21 23 -38 27 -38 5 0 8 -5 8 -10 0 -11 128 -206 164
-251 12 -14 32 -40 46 -59 135 -180 307 -365 485 -524 44 -39 82 -74 85 -77
16 -18 201 -159 209 -159 5 0 11 -4 13 -9 4 -10 228 -163 228 -155 0 3 15 -5
33 -18 17 -13 41 -29 52 -35 39 -24 357 -183 366 -183 5 0 33 -11 62 -25 61
-27 347 -126 347 -120 0 3 12 0 28 -6 15 -6 34 -12 42 -14 8 -2 38 -9 65 -15
28 -6 61 -14 75 -16 14 -3 45 -10 70 -15 25 -6 59 -12 75 -14 17 -2 44 -6 60
-8 17 -3 54 -9 82 -12 29 -3 72 -9 95 -12 64 -8 523 -9 598 -1 112 13 164 19
190 24 14 2 42 7 63 9 22 3 94 17 160 32 67 14 129 27 137 28 8 1 22 5 30 8
15 6 182 55 210 62 8 2 31 10 50 18 19 8 37 15 40 15 6 1 15 4 125 45 50 19
113 45 140 57 95 44 170 79 165 80 -3 0 -37 -7 -75 -15 -39 -9 -90 -18 -115
-21 -25 -3 -52 -8 -60 -11 -26 -9 -342 -12 -405 -3 -127 18 -136 19 -235 41
-158 35 -472 158 -562 221 -16 11 -28 17 -28 14 0 -7 -234 136 -238 146 -2 4
-8 8 -13 8 -9 0 -67 38 -79 51 -3 3 -27 20 -55 39 -27 19 -52 36 -55 39 -3 4
-22 17 -42 31 -21 14 -38 28 -38 33 0 4 -6 7 -14 7 -8 0 -16 3 -18 8 -1 4 -50
45 -108 92 -58 46 -107 87 -110 90 -5 5 -108 93 -148 126 -13 10 -43 37 -67
59 -24 22 -66 59 -93 82 -27 24 -63 55 -79 70 -17 16 -61 55 -99 88 -38 33
-79 70 -92 83 -13 12 -25 22 -26 22 -2 0 -19 15 -38 33 -38 37 -83 76 -183
162 -38 33 -72 63 -75 66 -12 13 -273 221 -345 275 -116 86 -322 220 -390 254
-16 8 -32 17 -35 20 -10 10 -138 70 -149 70 -6 0 -11 3 -11 8 0 4 -15 12 -32
19 -155 55 -237 83 -260 87 -15 2 -31 7 -36 10 -5 3 -37 10 -73 15 -35 6 -75
13 -89 16 -25 6 -307 14 -312 10z"/>
</g>
</svg>
